<mxfile host="app.diagrams.net" agent="Mozilla/5.0 (Windows NT 10.0; Win64; x64) AppleWebKit/537.36 (KHTML, like Gecko) Chrome/134.0.0.0 Safari/537.36" version="26.1.3">
  <diagram name="Page-1" id="MMmLdoQOqxhxZfnEbIPG">
    <mxGraphModel dx="1050" dy="530" grid="1" gridSize="10" guides="1" tooltips="1" connect="1" arrows="1" fold="1" page="1" pageScale="1" pageWidth="827" pageHeight="1169" math="0" shadow="0">
      <root>
        <mxCell id="0" />
        <mxCell id="1" parent="0" />
        <mxCell id="SOYD2aJHP4hrcM5KsKeR-1" value="" style="rounded=0;whiteSpace=wrap;html=1;" vertex="1" parent="1">
          <mxGeometry x="100" y="60" width="280" height="380" as="geometry" />
        </mxCell>
        <mxCell id="SOYD2aJHP4hrcM5KsKeR-2" value="&lt;h3&gt;&lt;b&gt;&lt;i&gt;Polak Draw&amp;nbsp;&lt;br&gt;&lt;/i&gt;&lt;/b&gt;&lt;b&gt;&lt;i&gt;Prize Bond&lt;br&gt;&lt;/i&gt;&lt;/b&gt;&lt;b&gt;&lt;i&gt;100 BDT&lt;/i&gt;&lt;/b&gt;&lt;/h3&gt;" style="text;html=1;align=center;verticalAlign=middle;whiteSpace=wrap;rounded=0;" vertex="1" parent="1">
          <mxGeometry x="205" y="90" width="90" height="70" as="geometry" />
        </mxCell>
        <mxCell id="SOYD2aJHP4hrcM5KsKeR-3" value="" style="rounded=0;whiteSpace=wrap;html=1;" vertex="1" parent="1">
          <mxGeometry x="215" y="180" width="70" height="30" as="geometry" />
        </mxCell>
        <mxCell id="SOYD2aJHP4hrcM5KsKeR-5" value="" style="shape=image;verticalLabelPosition=bottom;labelBackgroundColor=default;verticalAlign=top;aspect=fixed;imageAspect=0;image=data:image/png,iVBORw0KGgoAAAANSUhEUgAABT4AAAHdCAYAAAA0MWaeAAAAAXNSR0IArs4c6QAAAARnQU1BAACxjwv8YQUAAAAJcEhZcwAADsMAAA7DAcdvqGQAAHxySURBVHhe7d0HnCTpXd//X4fJOe+Enc15725vtdKhgBUQuhNCAYGEEdEgjDFgjEGYl1/m7zMYB2wZ/hhMlPAfECIYFEASEkqAkECn0+nC7t7m2TRhJ+fc86/vM1WzPbOTOtTMdM/nfSp1d3V1dVVNb03Xd37P80TOnntswQAAAAAAAAAgj0T9WwAAAAAAAADIGwSfAAAAAAAAAPIOwScAAAAAAACAvEPwCQAAAAAAACDvEHwCAAAAAAAAyDsEnwAAAAAAAADyDsEnAAAAAAAAgLxD8AkAAAAAAAAg7xB8AgAAAAAAAMg7BJ8AAAAAAAAA8g7BJwAAAAAAAIC8Q/AJAAAAAAAAIO8QfAIAAAAAAADIOwSfAAAAAAAAAPIOwScAAAAAAACAvEPwCQAAAAAAACDvEHwCAAAAAAAAyDsEnwAAAAAAAADyDsEnAAAAAAAAgLxD8AkAAAAAAAAg7xB8AgAAAAAAAMg7BJ8AAAAAAAAA8g7BJwAAAAAAAIC8Q/AJAAAAAAAAIO8QfAIAAAAAAADIOwSfAAAAAAAAAPIOwScAAAAAAACAvEPwCQAAAAAAACDvEHwCAAAAAAAAyDsEnwAAAAAAAADyDsEnAAAAAAAAgLxD8AkAAAAAAAAg7xB8AgAAAAAAAMg7BJ8AAAAAAAAA8g7BJwAAAAAAAIC8Q/AJAAAAAAAAIO8QfAIAAAAAAADIOwSfAAAAAAAAAPIOwScAAAAAAACAvEPwCQAAAAAAACDvEHwCAAAAAAAAyDsEnwAAAAAAAADyDsEnAAAAAAAAgLxD8AkAAAAAAAAg7xB8AgAAAAAAAMg7BJ8AAAAAAAAA8g7BJwAAAAAAAIC8Q/AJAAAAAAAAIO8QfAIAAAAAAADIOwSfAAAAAAAAAPIOwScAAAAAAACAvEPwCQAAAAAAACDvEHwCAAAAAAAAyDsEnwAAAAAAAADyDsEnAAAAAAAAgLxD8AkAAAAAAAAg7xB8AgAAAAAAAMg7BJ8AAAAAAAAA8g7BJwAAAAAAAIC8Q/AJAAAAAAAAIO8QfAIAAAAAAADIOwSfAAAAAAAAAPIOwScAAAAAAACAvBM5e+6xBf8+AAAAAGCXKSgosD3Ne2x0ZNSGhob8uWaFBYV27NhRKygs9OeYJRIJGxwatNu371hift6fuzmtLa3WtKfJf7RoYmLCrly5YvMprisMFZUVbjsmxif8OQCAXEfF5xYrKiqyuro6a6hvsKqqKotG+REAAAAA2D7lZWVWX1dv+/btt9qaGn+uJ6JJ/3efrl/qauvs4MGD3v2YP3dzJibGbWhw0E3DI8MuRN0pyrxjcOjAQTcp8AUA5IdYc0vbk/59hCgWi9nBQ4esra3NqqurXehZW1trDQ0NNjM9bVNTU/6SAAAAALB1SktKrKamxqLRiFVUVtnszLRNetcnCwsKOs3m5+bc9YomNRdUhWhhYaFNTE7YdArXMXr94NCQm8bHxt31kMLPgYEB7722tyGitiMWj7lwdmR0xO07ACD3UW64BfSX0AMHD1pVZaVFVvzFVIHo/gMHrLqq2p8DAAAAANsjFova3vZ9rvIzkZi3rq5uu37jxv3p2nWbm5111zXlpWX+q3KfmrjfuX3HOju7vP0m9QSAfEHF5xZwTdsbGh4IPQOaX1xSbIODg9v+l87tov504vG4zXpfogAAAABsnZKSEqtOauK+svIzmQo36urr3a2qNkdHR/1nUqPX13vr2UzFp0LYtra91traalXedqkcc+V2BVR0UldfZ/v27bOmxkYrKiq0qckpa9qzxyoqKmx8fHzpvWqqq62ludlVuwZTSWnpsmUCauLf7C0brEOv3eu9xx5vnipmp6enbW5uzl8aALBTEHxuAf2S1ZeJ9cS8X6QjIyO7MvhTfzqHDx1yVa9Dg0M2n8hex+b6gqKmOLJbQ2UAAABAFAieOH7CBXjJU3LoGVgr/AwCy60IPqPeMupLdI93PaXv9FqmqLjIamprrbS01Ia966fk12mdRw4fdkUnui/l5eXW0Njorjk0L/m91FdpfUO9FXvXasGk64fVtkfzW1pa3PuqJV9DY5N3DRfx5se89yiz2toaGxsf844XhRwAsJMQfIZM1Zyq+NSgRuvRr9Wh4SGbmZ5ZnOHTL/umpj1WW1NrE1OTKY+cmAvC7E9Hf4k9euyYRbz/0v1SBgAAAOSD2upaFwRu1mrhZxBY6jbs4LOlucVq62qtr7fPrl69Yj09PXbvXq8LQTVuQnTFd/w9e5q85etcH6KXL132lu92y6s/UgWfKjJJfi+9tqury039/f2u4nOt7XGDOnnrVkHL1PSUXbl8ybq6u902zc/NuzEc4gVx14oPALBz0MdnyPQLc9775bkhb7nE/IPLqdlEU1OT+0tkhffLOh/Rnw4AAACwM6nPz7a9ezdswZZtGlm9urbapqdnrKune+k6wfU76l03zMzOuOeDEdgVpFZVVbv+R7s677rlRLfdXd1ufjZoPXdu3bG5ufsFKSpgUTN3bYu2AwCwcxB8boHRFU0wVjM9MxP6yO7lZWV28MABVwWpJhkKU0+cOGEPnT5t+/fvt1g87i95n77gHPBeo2WOHTvmXqPXriZ5nadOnrS2tlbvl3+BaxKiSX8lDWgbtC3J08plVlNRWWmHDh5026P3UdOceHz59hQVF7s+fbRONWuRquqqZe+l919NKvubzvEEAAAAco36r5zxrle2ksZAUJCoVmErQ0uFnqo2LfC+b6sPT4nH4u7aY8pt6/LlF9x/2aH1rFybCjkYqwAAdiaCzy0wMNDvws+1qDlFZ1eX+4Upat6uDrzVlEKdd6uJiZRXVLh5moJ+K1OhJh7qv6equtqOHz9m7XvbXdBX4M0vLi52VafJmptbXJCnZhsWiXhfKorda9Rvzsq/ZOqx5ut5NevXPtTXN9jJU6essbHRKleMaF9aWua2JXlauUwyHQONfq++QBV+anv0xUb9/Zw4cdKFkAH9VbqsvNxN2mZxzVv8eW5+8YNdD6Syv5Lq8QQAAAByzcTEhBvNPbhW2Spx7/u3rg3W6jNT81V8EFwXFRQWWMR7rMpLXV8BACD08bkFlH8NjYy4v1oqFEwO9/QF4tbNmzY0NOTPMauuqnIhn/qtUR88wfLqSFvzNOmPjKn2p6NQTkGdbjWy4bXr1+z27duu7xu9f3JzjdraWlexqQGXLl2+bD1+/zUKILWOmPelQs8FwuxPRyqrFkdcHBketkv++rU9c7Nz7rX6a/Dg0GJ/Onqv3t5e7/3veV+IZtz23uu5Z1evXXXzNI2NjbtlA6nur6RyPAEAAIDtpu/J+oP+9NSUa20WTOqaS9/bV1Loee36dfedOqDXb0Ufnyok0HXPxOS49z38wfeoqqp0xRQDg4NufzRmgApEZudmbXBgeT+bG72XbLRM0MenltP1S3IQHDwna60fALA9qPjcIhqU6Pq163bhwgW7efOm3b51265du2bPP/+8CwuTbebvk5n8Mp2cmrTrN67b5OSke6z+cmZn59x9WWy23eCCu867ncsGVOru7nFfjiqrqpb+uqpf/mH3p1NUuBgY60tPsH7RF52ennuus/XIBs3k15Lq/q600fEEAAAAdgJ9r+3o6HAVnMlT7717/hL3rRZ6ikK+tVppZdPUzLT3vTphJcWlD7yfHmu+np/xlhMVROj7vK4b4nQ5BQDwEXxuAQWD+gtqvKDA9Y+jvxD29vXa8PCw9+yCq1ZUs+3A8NCQPf/CC/aCN93wvmwEQd+dO7fdvBeef946uzrdvHSMDI14XwrWDuaKigu9LxLF3rZOWWJh8a+/waR9UZBZEF/cJ9mK/nTGxkZt3tvmltYW17w9eG8dm87Ou3b37p20R7xPdX9X2uh4AgAAALkkCD01Wnlz855lfeWrP3wFiyrEGJtY3ooqm6anZmxictJKy8pcV1XJ9FjzVXGqlleiatZxb3vUwq66anl//qUlpYShALBL0dQ9RGoCfeTIEWttbXUjs2tqaGiwiooK15xdA/O0trW5+Y3u+UaLRGLeF40x13RCk35B19TUmZpcD/QP2Nj4+OZGiV9F0DR7oyYpxUXFVltbZ8XFRa5/zpWTvkxoUMXBwUHXybnWW1tXb1NTk65pRzIFh5k2KxF9kdE269ipaXtwPPWlR01b9PxqNrPPqe5vYLPHEwAAANjJgu+1klzpqRZP7e3truuqYm8ZTUErqNGxMevp7kmpJZoGBVX3Vfo+X1VT7Zqzx6JRKykrdc9pvr7Xz3iT1qtqzlpvudqaWlflqesjXTfs3bvXW9uC3b5z22am738/13d1jZWggU1VXBIviLsm6M3+IKpad/L1RirbQ1N3AMhNBJ8hKa8od4PiFPpNtAP6paggTV8aVAGa/FwkErUK73UK4oZHhr1fmOa+WNTVer/ovdep30g16U7XZoM6VTaqz8vxsVG7cuXKUr+YyVNfb69Nz0y5bQy7P52AvnT09fVZn/dFY9L7QqZR0ysrKlyYLGPel6+VNrPPqe5vgOATAAAA+UCDcyrkU9dNyc3b1c99vR/2Bdx39sEB131XchdUm1FXW2f1DfWLIap3zaNrIV0fKXAMglV9rw6ueRRkqp/9oPhB3/s1BoJa0V27dt0mxifccgFdL0yMj1tVZaVVVFa4PkK17t57va7IQQUkydcbqWwPwScA5KbI2XOPcVbOMv0yPHr0qAvG0qFflBokRyGfKCCNWsTm5me9Lxfp/7j0108NmqS/zN7tvOvPfVCR98XnyLFjrmn55cuXl/1SX43C2aNHj3nbnXDLJzf7Vqh4zFuXvoQoVFxtXZtZZvEYeF9+vGWSFXlfSo4ePuwqMi9fvuTWkWwz+5zq/gY2ezwBAACAna6kuMSmZ2fS7j4qbLrG0qTv6pv5vp58/aAgU9dnkxOTbsBTgkkA2D3o4zME5RUV7pdruvSXRlUg6i+Hoj4mZ/QlJIPQMxXTMzOuelL7oNHaV6qsqrTKykr/0db0p9PevtdOnjrl/nqbLOjEPBrxjpv330rz3pcafbEpKFq9f05JdX8BAACAfKMBO3dq6CkKO1UBul7oqesOtSRTN2GL11CLRRHV1VUuNFUzfkJPANhdaOoegvraOtfUPRMKP9Wn5GarDzcjlabZ6iRcTUOqqqqspLTUEt4XhOKiImtpabHWllZXpamm98EXhzD70xE1o6/xltP2q0sAHRf177m3rc1KvddooKh+b/0rLcwnvNdUW3lZmatM1VReVm7l5WU2ntQ0JtX9FZq6AwAAADtHQ2ODtbW2ue//kYWI+76+OM5CoyskuXP7TlavrwAAOx/BZwgqKypd3zOZUN85K/uOyVQqQd3c/JwNDg250c4VBirUVBVqUVGh9fTcs1u3bi/r00chZVj96YiCVT1e7N+n2vXvo22KF8RcH5x3O7tW/evtvLeNs9MzrmLTDSrlbZfu66/AyUFmqvsrBJ8AAADAzqHv5TPT067Flr7L67u/vrPru3rHjRuupRcAYHehj88QqEKwaZUm06lQkHjp0iUX+G03hYTxmEZvXFiqwFxP2P3pKCBVMxZVZaoJy2a57YpEXB+kCpbXkur+AgAAANhZ3DVDLJ7xOAkAgNxGH58hGB8fzzjgm5qedn1X7gT6oqCmIeuFgFvZn45CSwXCqYSe4rbLe916oadsZn8BAAAA7FzummELx0kAAOxMVHyGpKyszGpqaq2wILWBfVTFqOB0cHBgxwSfm6EK15bmFpuanrK+e33efiT8Zuk17gvH1ctXbXpm2l8aAAAAAAAACBfBJ7JG/WI2t7ZYUWGRP8dsZGTEbt++ZdPT9KcDAAAAAACArUPwiayjPx0AAAAAAABsN/r4RNbRnw4AAAAAAAC2G8EnAAAAAAAAgLxD8AkAAAAAAAAg7xB8AgAAAAAAAMg7BJ8AAAAAAAAA8g7BJwAAAAAAAIC8Ezl77jGG3gYAAACAXSwxP2+JhQVbWEh4kz8TSEEkoilqUe9ONBbz524PPs/I1E76PCMzVHwCAAAAwC6lgGh2dsbmFBQlCImQPn129BnSZ0mfKX22thqfZ2TLTvg8IzsIPgEAAABgF5qbm3MX9YRDyDZ9pvTZ0mdsq/B5Rli24/OM7CH4BAAAAIBdRhfwqmYCwuQq5rYgLOLzjK2wVZ9nZBd9fG4x+hoBgPvoOwcAgK2naxJVLwFbJe59zwvrux6fZ2y1MD/PyD4qPrcIfY0AwIN0LnR/OfXPkfSdAwBA+OYT/L7F1grzM8fnGVuNz1xuIfjcAiqF1kU9YScArE3nSJ0raT4CAEB49EdGrkuw1dwfu0P4AzefZ2yHsD7PCAfBZ8joawQAUkPfOQAAhEfdbgHbIYzPHp9nbBc+e7mD4DNE+gsAoScApE7nTv6KCgBA9mmsAWA7hPHZ4/OM7cJnL3cQfIaIfh8AIH2cQwEAyD6KlLBdwvjs8XnGduGzlzsIPkNCXyMAkBmdQ6n6BAAAAACki+AzJPT3AACZ41wKAAAAAEgXwWdI6O8BADLHuRQAAOwEBw+028MPnbCTJ45acXGRPxfIPfr86nOsz/Oxo4csFiMWQn6LnD33GOU0IZiZmfHvAQAyUVhY6N8DAACZ4jplcxQGPfH4a+11r3mVNTTULQuHFhYWbHx8wp7+6nP2oY/8lfX29vvPYCPZ/l7H53lz9Bn+lrc+YY8++pBVlJdZJBLxn1n8PA8ODtuX/uFp+/MPf9ympqb9Z7ARrlNyA8FnSDgBA0B28IUCAIDs4TplYw+dPm7f/V3fZi3NTcsCotUoAP2rT37O/vzDn/DnYD0En1vv7W97owvxy8pK/TlrGx0dsz/9s7+0z3z2C/4crIfrlNwQa25pe9K/jyyaZ0AOAMiKWCzm3wMAAJniOmV9r3j5Ofvn7/5Oq6+r3TD0lMLCAmtrbbZbt+7avXt9/lysJdvf6/g8r+97v/sd9k1v/AYrKtpcQKflTp8+bqUlJfb8Cy/6c7EWrlNyA8FnSDgBA0B28IUCAIDs4TplbY+eOW0/8M/+qVVUlPtzFqmq88qV6/a1Z89bZ1ePxeNxKysttWg0YiOjY/b+//PH9szXXvCXxnoIPrfOO77tza7SU900zM7Oep/X6Lphvpq8z83NWUFBge3ft9d7zZxduXrDfxar4TolN9DUPSSU3ANAdtCEBACA7OE6ZXXl5WX2np/8YTt8aL8/x2x2bs4+/em/tQ/+8Ydtfn75gItnH33I3vqWx+0vP/Zpe+orX/PnYiM0dd8aGrzox370+62yotyFw3/+oY/bM187b9/+zrfYoYP7rH9g0Obn5i0Wj7nq5rud3fbBP/qwNTc32fd9zzvcz0n9fv7Kr77PLl+57q8VK3GdkhsIPkPCCRgAsoMvFAAAZA/XKav75je93t7xrW+2eHyxgmtmZtb1dfjxT3zGPUZ2EHxujR/54e+zl3/dS1yF5/T0jL3vdz9of//Fp/xn16aR3n/sR77fSktLXAWoBjz6tV//P/6zWInrlNxwf2g6AAAAAAB2oYdPn1gKPRX4fOXpZwk9kZPq62vt4IF9S83a1Ry7urrS3d+IunlQFw6i12s9Wh+Qywg+AQAAAAC7lpr3NjbW+4/MJienNlUdB+xELd7nubLyfj+1Nzpu2V998nP+o/Xpc/+1Zy/4j8yqqipsb1uL/wjITQSfAAAAAIBdq7a22jXtDahvw6vXOvxH933nu95uH/i9X113+q1f/0U7deqY/wpg67W0NFlBYYH/yOzOna4H+qhdz5Wr113/thIviFtT0/0/CgC5iOATAAAAALBrxVaMdj03P2djY+P+o9RoPVofsFMUFaXWD2U0wucX+YVP9A7Q3NxsBw4csHg87s9ZpMeav3fvXouu+OWpX6hVVVV29OhRO3v2rD388MPW1tb2wDqSlZaW2pEjR9zyp0+ftqampgfWG6ioqHDL1tXVuWW0rN5Drz18+PDS++g5bZ8m9R2i5U+dOmWPPvqoHTp0yEpK7v/lNFmwTm3HS17yEjt58uSq2xMcm8rKSjt+/Lg98sgj1tDQ4PYleKxlkr+oBFLZXwAAAAC703wi4fr1DMRjcTfKO5CLJienbcH7TAcaGuq8a/XNXwe3tOyxgnVyBSDXxJpb2p707yOL5ufn/Xsba21tdcFeX1/fstcVFBRYe3u7GylMzwW/jBXeKXwMnhMFkdXV1S4UHBsbe2B0OwWTek1xcbFbj9atkFLvOzg4aImkE6NovoJULatbrVevUbipeb29ve42CD7Lysrc++/Zs8cto/kKT+vr6210dHTZ9hQVFblwVOuU6elp9/ra2loX5g4MDCxtj46NtlPP6f21vzU1NdbY2Oj2WfP0vhMTE94JftK9RlLdXwA7l84pAAAgO1K5TtktdF3x2Esf9a5JSv3HMbt2rcO6e3rd44AqOcfHJ+za9ZtL0+07XS5YKvSbFk9OTdsXv/gV6+sfcI+xXLa/1/F5flCJdw187twjS5WeZaUldq+33/usdrrH69m/f6+97S1PLHX9MDU5ZZ/69N961//97jGW4zolNxB8hiSVE7DCQQV6ChOTX6dfwAr4FNIFQaMo+FMYqQDv/Pnz1tnZ6SaFiwr3tK7+/vsnJq1/3759NjQ05Ja/e/eudXV1uXBSz+lWzyVTtaTCRt0qULx06ZJ1dHS491EwOef3+aHXBhWYWu7ChQtu/VpOy2gd2o/k7dG2KODU+q5ever2rbu7eynU1OsUloq2T0Gplrt+/bqbp9feuXPHbdP4+LjbZx23YB/S2V8AOxdfKAAAyB6CogepWfuZM6esqXGxMEPXL2pR9tRXvuYeBxSEPvvchWVTY2OdPfLIqaXm7X19A/YXH/tr79ps1j3GcgSf4Rv0rnW/7mVnrbq6ynr7+l0F8xnvM6rHHTdv2/T08iIpqayssCcef61997u+1fV5G1Dg+dG/+BSf5zVwnZIbaPebgxQE6hfx8PDwsspFVYUq4FMAqXBPdKsm3goTb926tfSLQSGqwklVSqpiUhWRq9G6rly54pbTa/R+s7MPnvQ0T0FmEIiKglmFsdre4ISg7VZwqiBT2xsIwl3dqlI0md43WK+qQ5NvtT96Pqh8zXR/AQAAAOw+X3v2/NKALrpmOfeSR+yb3vgN7vFaFBa99jWvXNYs+PKV62n3DwpkgwYyeu6Fi+7auryszP7xy8+46/UnHn+N/fqv/hf7yZ/4ISsuLvKXNnv397/Lfu1XfsHe+W1vtpqaKn/u4jX6Cxcu8XlGziP4zEEjIyMu2FNTdzUFV7AoOjEp7Lt58+ZS4Kc+NjVNTU258E/LBpPCSJ0AFQKqSfhqFF6uFnSupHWvpG1c+Votp2rLoAI0aLauSYFkpjLdXwAAAAC7zxf+/invOuqO/8hc0/Vve/ub7B3f9mbvOuLBy+Z97W32Mz/9I9bassef412njY7ZF7/0Ff8RsH0++7m/t557fd61cbEdPXLA/u4LX7aOjtt2+3ane25qarGQSJ7+6nOrVoGqevmzn/2C/wjIXTR1D0kqJfdqfp1KU3eFd6r2VH+Veq0G92lpaXGVkqrQTA4bFfCpKbpu1f+mlk2egj4wVX2Z3A9n0NRdTc71XmtRhaXWr1Bx5fYHz0ny9mtZDXykPji1/doPTeXl5e45hZZBMKrnFVoG2xdsl6pGVb2p57SMKkD1mnT3F8DOpfMCAADIjlSuU3YTNeUdHh6xh04f964xgnEUYnbs6CF73WtfZSeOHbajRw7aS8+dsW99+5vsLW95g9XWVLvqUFGV3d/93T/Ypz/zd+4xVpft73V8nlc3MTFpg4PDdvrUMVdsNOldY//Zhz5uX3n6Obtzp2tZ0NnYUGcve+mjy1pF6t/DX3zs0y4Uxdq4TskNBJ8hCTP4FIWbPT09blIAqH9w6vtSy+uXr6pCJQgGFWBevHjR9aW52qTgMHn9YQafBw8edNuk933xxRddf51qoq/3Un+dQYgpqQaf6e4vgJ2LLxQAAGQPQdHaurvvuSq5kyePLoWfurZSs+Dm5iY7dGi/Hdi/16qrK5f69BRdV3z1meftt9/3Aa4xNkDwuXU6O7ttbm7eThw/Ym1tzfZPvv7r7FWvfJkL+K9e6/CXMmtqarDHXnY/+FTo+fFPfMY+8tFPusdYG9cpuYGm7juEQkIFnZuhE5KCUv0SVgCqUFAB4nPPPeceK/i7f9Kacb8M9Fi3CvxWTlpG4epW0HaoMlWhpQYdyvYvqp22vwAAAAByhwY0eu8v/abdudu1qRBTIdFnPvsF+5VffZ93/cE1BnaWv/rk5+w3fuv3bGBgc4P7qkr0fb/7QfvTP/tLfw6Q+wg+dwAFcfpLgaoVk6n5dxBgJjtw4ICdOXPGVXgmU+ipSSFq0ORCQZ+qP1UpqabeK6lfzWz0rZkqhbzazmTajkz/YrJT9xcAAABAbrh69Yb9u3//X+yDf/xh6+5Wq7YHA83JySn76leftyd/7r32u//fHxN6Ysf68lNfs/f8zM/bH//JR+3ypWvW2dnjP7NIgxddv3HLPvbxz9hP/dufsy/8/Zf9Z4D8EDl77jFq8UOgMHOzVAF5/PhxV4WoJt8aFEihp/riUDio6sgLFy64CkbRc0ePHnXhppZXs++gT0s9p2bl165dc8uKnjtx4oSrEtXAQkGzczVD13uMjY25itHk6ktVjaoPTo2ErgGT1qKg8uTJky6gPX/+vAseA8Fzkrz96t9T763+SNXsXPuoJu7q41M0oNKlS5fc/WPHjrl90vap+XqwXcGo8MGxU9gZvCad/QWwc+nfMgAAyI5UrlNw38ED7d71SpnNe9dsGiBmZGTUfwapyPb3Oj7P2E5cp+QG+vgMSSqhmk7WmtR3pYI5TaqIvH79uhuhXJL7yFS4GAxupMCwqanJ3Sp8DILK5GYZClIVjqoKUtWOCg81qcJUwaneZ2XT7zD7+FRIqfcOwl1tk15348YNF2RqXdpebVOwnZvt41PS2V8AO1emleAAAOA+/vifnsGhYdf/Z29vv3ftQdiWrmx/r+PzjO3EdUpuoOIzJOn85UkVnAovFRCqyfpmKFzUaxTkbeY1Wj7oS1TLJwekWy3Ydv2yUlgZhp20vwDSw19SAQDIHirksJ2o+EQ+4TolN9DH5w6iUE4n7s2GnqLAU9WOm32Nltd7aNruEDDY9rBCT9lJ+wsAAAAAAICtQ/AJAAAAALuEPwYqsOXC+OzxecZ24bOXOwg+AQAAAGCXiES4BMT2COOzx+cZ24XPXu7gJwUAAAAAu0SUMiVskzA+e3yesV347OUOgk8AAAAA2CWisRhNNLHl9JnTZy/b+DxjO4T1eUY4CD5DwskXADLHuRQAgOyLRblgx9YK8zPH5xlbjc9cbiH4DAn9PQBA5jiXAgCQfapUikb5HYutoc9amNVxfJ6xlcL+PCP7ODuEhP4eACBznEsBAAhHPB4nLELo9BnTZy1sfJ6xFbbq84zs4swQEv0FgOt1AEifzqH8NRUAgPDoAj7OdQtCoM+UPltbGRLxeUZYtuPzjOwh+AwR/T4AQPo4hwIAED79kbGgoNBd1KuaidAI6dJnx1XE+Z+p7fgDNp9nZMtO+DwjOyJnzz224N9HCObm5iyRSPiPAACbQTMSAAAAAECmqPgMmS7cdQEPANgcQk8AAAAAQDaQyG0B+hoBgI3pHKlzJaEnAAAAACAbCD63CH2NAMCD6DsHAAAAABAW+vgEAAAAAAAAkHeo+AQAAAAAAACQdwg+AQAAAAAAAOQdgk8AAAAAAAAAeYfgEwAAAAAAAEDeIfgEAAAAAAAAkHcIPgEAAAAAAADkHYJPAAAAAAAAAHmH4BMAAAAAAABA3iH4BAAAAAAAAJB3ImfPPbbg38cWSMzPW2JhwRYWEt7kzwSAXSoS0RS1qHcnGov5cwEAAAAAyBwVn1tEgefs7IzNKfhMEHoCgOhcqHOizo06R+pcCQAAAABANhB8boG5uTl3UU/YCQBr0zlS50qdMwEAAAAAyBTBZ8h0Aa9qJgDA5rgKUMJPAAAAAECGCD5D5PrzJPQEgJTp3EmzdwAAAABAJhjcKETqr47m7QCQHg18VFBQ6D8CAABArisuLrS3vvlxe/jhk1ZTXWmDQyP23HMX7CN/8Umbmprxl7rv9a97lb3iFefs4otX7fOf/6K96U2vt4cfOmGF3nfE7u579oE//HO7cfO2vzQAPIjgMySqVFJfdQCA9MVjMUZ7BwAgixYWFmxe3XFRoYEVopGIxeJxi+ivzyFoaW6yH/qh77b2thabnZ2zublZi8cLrKAgbrfudNpv/ubvW2dXj7/0on/6zrfa4294tV27dtPq62usqqrSf8asv3/Qfun//W2729ntz8ke/p1gPWH/W0F2EXyGhL49ASBz0WjU+0Ic9x8BAIBMzc3OEuZgTQp04gUF/qPs+lc/+gN25pGTduHCZfut933ARkbGrKG+1t79/e+yI0cO2NeevWC/8qvv85deFASfogrPv/jYp+2rzzxnhYWF1tBQZzdu3A7lupt/J9hImP9WkF308RmShQVCTwDIFOdSAACyizAH6wnr83HyxFE7cni/jYyM2kf+8lMu9JTevgH7yF98ysbHJ9zzWm41Q0Mj9v7f/SP74pe+4prE6/WqAg2r2Ih/J9gIn5HcQfAZEv4NAEDmOJcCAJBdqlIC1hLW5+PQwXYrKSm2e30DduXKDX/uogsXL1tXT68VFRXb3r3N/tzlbnTctivXOvxH4ePfCTbCZyR3EHwCAAAAwC6hfum4YMdq9LnQ5yMMZWVlFovFbGx03J+znOYXFMSsprran7O9+HeC9YT5bwXZRx+fIZmZeXBEOgBA6tSHEwAAAHLXO77tm+2Nj7/Wnn/+ov3Sr/yOP/e+n/hX77aHHjrh+vD80Ic/4c+938fnM187/0D/nwCwGVR8AgAAAACA0HR399rs7KzVN9RZeVmZP3eRHmu+nu/rG/DnAkB2EHwCAAAAAIDQvPjiFRsYHLaG+np71ate5s9dpMeaf+9evz3zzAv+XADIDoJPAAAAAAAQGo3e/vm//ZJ3L2Fvf9sT9sM/9D328q97ibvVY83/wpeesrHx1fsABYB0xZpb2p707yOL5ufn/Xu5r6qqygoKCtbst7S9vd1OnDhhbW1tS1NNTY319/fbAkMyA8iQOsIHAABAbrt2rcP6B4bs0KH9dujgPjv3koetpaXJhkdG7YN/9BH7/Oe/6C953+lTx+2wt7yayv/jl5/x5wLA5jG4UUjyZXCjiooKO378uAtyX3jhhVX3q66uzmpra939aDTqgtLJyUm7cOFCXgXAALYHgxsBAADkl9aWPVZTW22DA0N2t7PbnwsA2UfwGZJ8CT5VabV3716bm5uzzs5OSyQS/jOrKyoqslOnTrmOqQk+AWQDwScAAAAAIB308Yl1Kbjs6OiwO3fubBh6AgAAAAAAADsFFZ8hSafis7S01FpbW13zcr2+t7fXTcmBY3NzsxUXF7v+M1taWlyFpSoxx8fHXV+benzv3j3r7u5e1r+mmqA3NDS4ScuoKbrWsXL9ktx0PTA1NWV3796l4hPAlqPiEwAAAACQDgY3CkmqgZ+akx8+fNiFmgosNZiQAsjKykobHBxcChwVjAbBpJZRIKCBhBobGy0ej7t51dXVNjEx4cJNCcJIhZ4yPT1tZWVlbh3qj3NgYGBZoKnlmpqaXBAbTGry3tfXt+FgRdoGbYvWp1CVwY0AZIrBjQAAAAAA6SD4DEkqwWd9fb3t27fPhoaG7Pz5866ysqury1Vp6jnd6rlgWQWZV69etevXr7t5Ci/VFP3SpUuu8lPBqN4/eI3WrWXUZF2vUyCpitAgNFX/naOjo25ZGR4eduvTpGW1vs0GmQSfALKN4BMAAAAAkA76+NxmCjVVXanw8datW0uBqQJDNWFX5aYqOFXJGdBzWl5UvZl8q9fr+aBpaCQScRWdCjxVsRkIgkndqmk9AAAAAAAAkE8IPrdZSUmJm9SHpgJLVXMGk6qc1FemQk81gU+H1qnKT/XnKUGzeE0KVAEAAAAAAIB8RPC5zVTxqapMVV2eOXPGHn300WWTmqhnSgGq+g89d+6cHTt2zDV9V5+iCj/1/gAAAAAAAEC+IfXaIdSv5jPPPLPq9Oyzz7q+O9O1f/9+10+n+vV86qmn3PT000+7PkFTHYQJAAAAAAAAyAUEn9tsZmbGhY9qzq5b9dW5ctIy6oszHVqvqknVV6gGTSLoBAAAAAAAwG5A8LnNFGyOjIxYaWmpNTc3+3PvUz+c2eiLU6Otr2zWrvUyWjIAAAAAAADyUay5pe1J/z6yKJXKSlVjatAhBZHl5eVuQCINZtTe3m5tbW3uvkZm1/z6+no38JFGaFclqALT2tpa97zWo+e0jAJVDWikStGysjKrrKxcClB1X83ftZxoYKVg8CNRs3i9r261XXoPBaRaj95L8zXokt4/neUBIBX8gQYAAAAAkA4qPncABY/nz593/XwqnDx69KgbhEj3Ozs77eLFixk1Ue/o6HBBqQLUAwcOuMGNFCRcvnzZhZGarybxAQWWCiuDIFOVoqoYDUJMTQpYA6kuDwAAAAAAAIQtcvbcYwv+fWRRutWNQWgoqpJUlWe2aN1BX6Jzc3P+XADY2QoLC/17AAAAAABsHsFnSGjWDQDZQfAJAED4EvPzllhYsIWFhDf5MwFgl4pENEUt6t2J0vVWTqOpOwAAAADsUgo8Z2dnbE7BZ4LQEwBE50KdE3Vu1DlS50rkJoJPAAAAANiF1P2VLuoJOwFgbTpH6lxJl4G5ieATAAAAAHYZXcCrmgkAsDmuApTwM+cQfAIAAADALuL68yT0BICU6dxJs/fcQvAZEnWECwDIDOdSAACybz7BRTsApItzaG4h+AyJRv8CAGSGcykAANmlSiX69ASA9LmBj6j6zBlcUYYkSpkSAGSMcykAANmVIPUEgIxxLs0dBJ8hicZiNNEEgAzoHKpzKQAAyJ6FBfr2BIBMcS7NHQSfIYpFuWAHgHRxDgUAIPsoUgKAzHEuzR0EnyFSpVI0yiEGgFTp3Em1JwAAAAAgE6RyIYvH44SfAJACnTN17gQAAAAAIBMkcltAF/Bx+vwEgHXpHKlzJaEnAAAAACAbCD63iJpsFhQUuot6VTMRggKAP4CRKjz9cyTN2wEAAAAA2RI5e+4xumQFAAAAgF1gZmbGvwcAyERhYaF/DzsZwScAAAAA7BL5FHxWVVXZ/Py8jY2N+XOWa29vt5aWFv/RovHxcbtw4YJ7HQBkguAzN9DUHQAAAACQUyoqKuzo0aNuWit8UMjZ39/vpsHBQUskEv4zAIDdguATAAAAAJBTJiYmrLe31+7du2dzc3P+3OUUeF65csVNHR0day4HAMhfBJ8AAAAAgJyipuoKM+/cuUMlJwBgTfTxCQAAAAC7RDp9fJaWllpra6trXq7Xq9JSU3Lg2NzcbMXFxa7KUv1qFhUVWWdnp2turr429VjVmd3d3bawcP8SNBqNWkNDg5u0zOTkpFvHyvVLXV2d1dbW+o8WTU1N2d27dzcMP7XuU6dO2ezsLH18AsgK+vjMDbHmlrYn/fsAAAAAgDyWauC3d+9eO3z4sAs1FVgWFBS4ALKysnJZv5kKRoNgUssoEKipqbHGxkaLx+NuXnV1tWuirnBTgjBSoadMT09bWVmZW4cGLhoYGFgWaGq5pqYmF8QGUywWs76+vmVh6mq0DdoWrU+h6kbLA8BGdP7BzkfwCQAAAAC7RCrBZ319ve3bt8+Ghobs/PnzrrKyq6vLVWnqOd3quWBZBZlXr16169evu3kKL9UU/dKlS67yU8Go3j94jdatZdRkXa9TIKmK0CA0VZ+co6OjblkZHh5269OkZbW+zQaZBJ8Aso3gMzfQxycAAAAAYBmFmqquVPh469atpcBUgaGasKtyUxWcquQM6LlgACFVbybf6vV6PmgaGolEXEWnAk9VbAaCYFK3aloPAEAmCD4BAAAAAMuUlJS4SX1oKrBUNWcwqcpJfWUq9FQT+HRonar8VH+eEjSL16RAFQCAbGBwoy2WmJ+3hPdLfmEh4U3+TADYpSIRTVGLeneiNBUBACB0mx3cSNWWx48fX7cpp6o4X3zxRdcc/dixY67fz+Cxmr6rb9CgojNY38jIiGv6Llr3gQMHXJN1VYBqfar01H01TVcfosGyKwX9g252sKJUlweAjTC4UW6g4nOLKPCcnZ2xOf+XOaEnAKjaY7FJm86NOkfqXAkAAHYO9av5zDPPrDo9++yzru/OdO3fv9+FnurX86mnnnLT008/7cJOgkkAQDYQfG4B9XOji3rCTgBYm86ROlcGfYMBAIDto8pQhY9qzq5b9dW5ctIy+gNmOrReVYGqr1ANmkTQCQAIA8FnyHQBn+6XAQDYjVwFKOEnAADbSsGmmqWXlpZac3OzP/c+9cOZjb441aRdAykl03oZLRkAkA2x5pa2J/37yDI12Zwn9ASAlGnAg4h3G1lxIQQAADKTSmWlqjE16JCCyPLycvf7WYMZtbe3W1tbm7uvkdk1X316qh9N9eepSlAFprW1te55rUfPaRkFqhrQSH/oLCsrc/2CBgGq7qv5u5YTDawUDH4kahav99WttkvvoYBU69F7ab768Az6MU11eQBIBX+gyQ1cUYZoPkFzDQBIF+dQAAC2l4LH8+fPu34+FU4ePXrUDWKk+52dnXbx4sWMmqh3dHS4oFQBqgY52rdvnwsSLl++7MJIzVeT+IACS4WVQZCpSlFVjAYhpiYFrIFUlwcA5B9GdQ+Jqj3VVx0AIH1x7+KH0d4BAMiedKsbg9BQVCWpKs9s0bqDvkTp7gZArmBU99xAxWdIEln8IgAAuxXnUgAAdgY1TVdoqimboado3WoCT+gJAMg2gs+QLCzQtycAZIpzKQAAAAAgXQSfIaFICQAyx7kUAAAAAJAugk8AAAAAAAAAeYfgEwAAAAAAAEDeIfgEAAAAgF0iEvHvAADSxrk0dxB8AgAAAMAuEYlwCQgAmeJcmjv4SSEUJSUl1tDQYI2NjVZeXm7RKB81AAAAYLtFKVMCgIxxLs0dkbPnHmPM3BDMzMz493JfVVWVzc/P29jYmD9nbfF43A4fPmzV1dX+nEV3796127dv+492t42OZ3t7u7W0tPiPFo2Pj9uFCxfc64DdprCw0L8HAACyYXZ2xha4CgSAtCjzLCjgGiVXxJpb2p707yOL8iWgqqiosGPHjlltba319/dvuF8HDhywuro66+vrs8uXL1tXV5f19vba6OgooZ1nM8dT4bFMTk7a9PS0FRUV2dzcnDuOC3xDxS4Ui8X8ewAAIBtUp5TgeyUApCXuXZ9EaNWaM/hJYV0TExMucLt3754L39ajqixVMyqwu3nzpk1NTbngTuvIpwrYTGzmeCoQvXLlips6Ojo2PO4AAABAKqLeRTtdUQFA6nTu1DkUuYPfdliXKhIVvt25c8cSiYQ/d3WqTFRllgLP2dlZfy6SpXI8AQAAgLColRHhJwBsns6ZQQtN5A76+AzJZisc1eRZTcN7enpsZGTEn3uf+srUIEGqEhwaGvLnLiotLbXW1lbXfFrvp2U0rRaoaZk9e/bYwMCADQ4OunU2NTW5f7R63+TKQm2PtiuZwkz107ly3Xr93r173W1BQYF7H4WeatoeCF6rZtrqu1IDH6kJvPqtXKmsrMyam5td1WhnZ2dGTbs3c3z0XsXFxa7KUtum8Fbvq21TX5t6rOrM7u7uZduiE56OoSYto+3VOlY7/qkcz5W07lOnTrljSh+f2K3o4xMAgPAkvO+X84l5+vwEgDWoT89YNEalZ46ij8+QbDagUoVkW1ubC7gUnCVTuHbw4EEXBip4S27yrLBRgwgptFMgp9BRAVtlZaULNlcGapqv99GyulVgp9fo/TVPgV0Q7AWhqILDYNJy6rczOfwTBZ4KDLWMwgktF/HOCrqvfdIkCly1TUEYqeU0b6V9+/Yt9RG6WjC6WZs9PtqWIJjUMtrumpoaNxp9EOYqfFYTdYWbEoSROk6i5vz6GWkdauof7GsgleO5krZB26L1Jf+MgN1E/14AAEA41E+d+w7vHuj/+b4JADodKpOJuSrPAvr0zGFUfIZksxWfCgk12E15ebldvHhxWdinecePH3eVnlevXvXnmtXX19uhQ4eW5itk1XoU9imEVEiqCs5keo2CQAkqPBXk6XX6orNW0/RUKg5VWant1fovXbrkz11OQd7JkyddoKj1BWGiqBJUzwXvlW7flqkcHx17hZXqT1OBqIJQLacR6FWRqdDz6NGjLnS8ceOGe43CaIWZWocqdUUnRA3spPm3bt1yVaOrSeV4SqrLA/mIik8AAAAAQDqIrLeZKvjUlFrho0K2ZKogVKCm0C2gx6oeVCiogC0IwrQehW2qTNR6FCyuRkGjQj4tp9eoknCt0DMM2m5Vtmr7Vjb/Dqou9Xy6oWc6x0fPBe+n6s3kW71ezwfBiwJUVXQqUFXFZiCoyNStAmAAAAAAAABsL4LPHUAVkgok1eRaFZGiWwV0mj82NubmiaoiNamPSAVyqggMpqByU6GemnivRlWNWxl0rkYBoYJFVUcGgaL2V/uvbVutCfxmZXp8NqJ1qpI06JYgaBavaWVwDQAAAAAAgO1D8LkDBFWQCuPUvF10q8cKAZObN6uiUVWHqio8c+aMPfroo8smNdve6dQNgAJY7Z+CQ1EfmXqs45Dc/D1VW3F8FKCq24Bz5865pvLql1TN4xV+6v0BAAAAAACw/Uhpdogg4FT/lArudKvHa1U/Dg8P2zPPPLPq9Oyzz2Y0MNBWUNWnAl/tp4JEVX+qmXhy8/FMhHl89u/f76pT1VfoU0895aann37a9WuaHFIDAAAAAABg+xB87hCqclRYp1HHVe2pikU9Xln9qGpJhWtqrq1bNRlfOWkZhYg7mYJHNRlXpafCT1Viqkl/poFt2MdH69XPRn2FavAjgk4AAAAAAICdieBzB1EVpPq61MjjCtiSBzUKKLhTn6ClpaXW3Nzsz71P/UzmSl+Twf6pmbj2W4M8qQ/NTGzV8dH2rmzWrvWqehUAAAAAAADbL9bc0vakfx9ZlE4loAbeUeVjUP2oisLVgkBVG6pvTAVtqg7VMuofs7293dra2pb6Bk1+rYJAjZo+OjrqKknXo2bcWo9u9T56rQI9VWdqHcEgRKqcTKYBhFS9qfAxGPxnPXq9qie1fu3vnTt3Mg4+JZXjo+3VdquJvbYnOE56XutZuU+qFNVxUGVuEKDqvpq/aznRwErJ+5/q8Ux1eSDf8QcFAAAAAEA6qPjcQYI+LhXI6Xat5tgK1s6fP+8CTIVvR48edYPs6H5nZ6ddvHgxoybYCtgUrgXBmyobVeEYhG6aFAhmSvsZ9GG63v6mKuzj09HR4bZXAeqBAwfc4EYKZi5fvuzCSM1XxW4g1eO5VccfAAAAAAAgn0XOnnss8xI7PGCrqvGCUExUBZiNismtom0/ceKEFRYWuqAyjGMW5vHRuoO+RDVQE4Bw6BwBAAAAAECqCD5DQjPkjTU2NrqKSTVxV7N+AFgNwScAAOFLzM9bYmHBFhYS3uTPBIBdKhLRFLWodydK11s5jabu2FIR76Sh5tsa0EhNxBUQq9k4AAAAgK2nwHN2dsbmFHwmCD0BQHQu1DlR50adI3WuRG4i+MSWUrNzBZ6tra2uifjVq1fdwEEAAAAAtpa6a9JFPWEnAKxN50idK+niLjfR1D0kNHVfnSo+g4F/cq1PUgDbg6buAABkny7gszW4KADsFsnjiCA3UPGJLaWgU6GwJkJPAAAAYOu5/jwJPQEgZTp30uw9txB8hkQd4QIAMsO5FACA7JtPcNEOAOniHJpbCD5DotG/AACZ4VwKAEB2qVKJhlcAkD6dQ6n6zB1cUYYkSpkSAGSMcykAANmVIPUEgIxxLs0dBJ8hicZiNNEEgAzoHKpzKQAAyJ6FBfr2BIBMcS7NHQSfIYpFuWAHgHRxDgUAIPsoUgKAzHEuzR0EnyFSpVI0yiEGgFTp3Em1JwAAAAAgE6RyIYvH44SfAJACnTN17gQAAAAAIBMkcltAF/Bx+vwEgHXpHKlzJaEnAAAAACAbCD63iJpsFhQUuot6VTMRggKAP4CRKjz9cyTN2wEAAAAA2RI5e+4xumQFAAAAgF1gZmbGvwcAyERhYaF/DzsZFZ8AAAAAAGyToqIiO3v2rD300EMWo/ULAGQVwScAAAAAAACAvEPwCQAAAAAAACDvEHwCAAAAAAAAyDux5pa2J/37AAAAAIA8Nj8/799bXzQatba2NquqqrKpqSl3f//+/dbU1OT6oRwfH7eFhQfHydXrGhsb7cCBA7Z3716rqalx8yYnJ1ddPhKJuPfYt2+fmxoaGqygoMAmJiYskUj4S923meXj8bh7rqSkxMbGxtw89aPZ3t5u09PTNjc35+bV1dVZc3Oz25fguGj9mq991Tqqq6vddusYrKaiosItp9dp3dr3Q4cOWWtrq5WVldnIyMiy/QiOj5bZs2ePFRcXu2NTX1/vluvt7V31OAHYeeiTNzcQfAIAAADALpFK8KngsrKy0gV05eXlLtzTKMYKAxU+DgwMLAv1FC6eOnXKhZGiIFDhX21t7arL6z0OHz7sAslgdGSFllq/1qHQMnkU+s0ur+1saWlxwWd/f78LEvX+ep1CRgWdosfaPoWN2i6FGEeOHHGhpcJUvU77pFBSyw0NDT0QSur4KBTWfN0GQazWpXnJQaa29fjx40vhsbZTx1VBqJ6bnZ0l+ARyCMFnbiD4BAAAAIBdIpXgUyGeKhLv3btnL774onV2dlpPT48LFBUkal2jo6P+K8xVPmp+R0eHXb161YV43d3dLqRU5acqLZOX1zyFhYODg3b+/Hm3fk0KL1V1qdcpuAxsdnmFmAoktZ19fX3ucRDeKlTUMgosNE/hrPZPFPQqhNQ2B/sbbL/Wr6ByeHjYLRsoLS11wa5uFapeunTJ7b9eq6A3qC4VvZ/Wr/kvvPDC0vp1jBWsEnwCuYXgMzfQxycAAAAAYFUKFbu6upYqNRXk3b59290q8Asu/BUKKtBT4KmwMaDXBRWVahaeTNWUQZgYrF/0er2ngkQFsIFUllfAqspLhYqap2BSlZ4KQzVfFZZBE3kJwk2t4+7du0vr1632VwFpEK6uRq+7cuWKW5+CS71OQWZAx0mv1zytL3n9d+7cWbYsACB7CD4BAAAAAJumEFB9XgYBoijsU1PwoEJT1ZmqbtSkpuirUf+XClDV5FzNyxVsisLAW7du2c2bN5dVqKayfHKgqeU06fUKIBWGar4C0aDZu4JR7Y8erwwhFf4mB6mrURXqeuGl3k+TjpuO30pUeQJAOCJnzz3GGXYLJbxfxAnvl9rCQsKb/JkAsEtFIpqiFvXuRGkqAgBA6BTibYYCwpMnT7qwT83KV4Z1x44dc83J1SQ8aL6u12hQo6BZuEJIhZK6r4BU4aCagidTE28N9KPgUbS8AkpVRQahZLLNLq/tVn+jqkJV358arEgVmXptUMGqAPXChQuuWlP9eKr/UDU/V4i6kpZVv6ErK1o3el1A1a7q31PbuvIYKJTVtio41fZstjsCANtrrQpw7CxUfG4RBZ6zszM25//yJ/QEAFU3LF6w6Nyoc6TOlQAAIDcETboDChcVeqrfyqeeespNTz/9tAv61grzFFY+99xzbjmFigoG1U/o6dOnXX+eK212eVWGKqwN+iPVfb1WIaceKzhVCBxUaQYVlwppV6P5K/cXALDzEXxuAf3S1UU9YScArE3nSJ0rdc4EAAA7V9DkW7+zgwpSzVNVo5qYq4/MzVQt6jWqmFKoqABSlZSqIFWwqceqptQygVSWV0ipbdF2alAjVX0qtFR1ajBPYWjwvUNN0HVfgejK8FOPNV/7tFoz9c3Q+rWNeu/kfQIAhIvgM2T65clfBQFg81wFKOEnAAA7gpqvB31pBtR/pwI8hYkK85KpSXvygESiPj61npXULP7MmTOuAjOZ1qlJ60kOIVNdXtun7dQUNMdP7qtTzwdUCaqgVIHoykGY9DgIT4O+Q1Ol7Qu2R8cvmapSg75SAQDZFWtuaXvSv48sU5PNeUJPAEiZqjR02RJZceEEAAAys9n+IxUiNjQ0uNBTwaUCRf1+Vj+XGlhIf6jUYEJBxaceq/9N9fsZDGak+2r+rkpMUdVjMPiRKAzUyPBqHq/30x8+FTLu27fP3ap/zuT+NFNdXstoWW13UIWq+0FlqJrka5tE81XNqeX1vPZXy2twJgWuer6jo+OBik9VgmqbFKhqtPn1BOtX8BkMdqT3Uv+hCoa1fxoBX+8FYOdb7Q862HkIPkM0N0/FEgCka8H7jy8TAABkV6rBpwJABYrNzc3W1NTkKh8V0F27ds31r5lMjxWUKvBUuKcAVO9348YNF0zq97rWFbSIUxCosFDLKxDU+nWrUDIYLCg5BEx1edHzCmd7enrcc3pvvV4Vliub5Gv9GpleFaUKJLV+3Vc4qn5KkytEA6kEn0HVp9apScdIYbECWB03bRvBJ5A7uFbJDYzqHhJVe6qvOgBA+uLelwlGewcAIHvSHdVdr9N9hXIK8Naj0FTLKlTcbPc1wWsU/m20fkl1+VRp/xWOavs3GxanQtuuUFnbTtAJ5CZGdc8NtCEMSYJfXgCQMc6lAADsDArnFH5uJmRUGKnqyVT67A5es9kQM9XlU6WwU+sPI/QUbbeOJ6EnAISL4DMkCwv07QkAmeJcCgAAAABIF8FnSPjDHQBkjnMpAAAAACBd9PEZks32nQMAWB995wAAkD1cpwBAdnCdkhuo+AQAAAAAAACQdwg+AQAAAGCXiET8OwCAtHEuzR0EnwAAAACwS0QiXAICQKY4l+YOflIAAAAAsEtEKVMCgIxxLs0dBJ/YNYqKiuzs2bP20EMPWSwW8+cCAAAAu0fU+x7M9ToApE/nUJ1LkRsIPgEAAABgF4lFuWAHgHRxDs0tBJ8AAAAAsIuoUika5VIQAFKlcyfVnrmF33YAAAAAsMvE43HCTwBIgc6ZOncit8SaW9qe9O8ji+bn5/1769M/nLa2NquqqrKpqSl3f//+/dbU1OT6oRwfH7eFhQV/6fv0usbGRjtw4IDt3bvXampq3LzJyclVl49EIu499u3b56aGhgYrKCiwiYkJSyQS/lL3bWZ5/YPXcyUlJTY2NubmqR/N9vZ2m56etrm5OTevrq7Ompub3b4Ex0Xr13ztq9ZRXV3ttlvHYDUVFRVuOb1O69a+Hzp0yFpbW62srMxGRkaW7UdwfLTMnj17rLi42B2b+vp6t1xvb++qxwnAzkOfvAAAhEPfmdXd54L3HwBgderTM+5dk8QIPXMSwWdIUgk+FVxWVla6gK68vNyFe4WFhS4MVPg4MDCwLNRTuHjq1CkXRoqCQIV/tbW1qy6v9zh8+LALJLVeUWip9WsdCi1nZmbcfNns8trOlpYWF3z29/e7IFHvr9cpZFTQKXqs7VPYqO1SiHHkyBEXWipM1eu0TwoltdzQ0NADoaSOj0JhzddtEMRqXZqXHGRqW48fP74UHms7dVwVhOq52dlZgk8ghxB8AgAQnoj33d99Z3YPFmNQANjtdDpUNhLzpni8wJ0rkZsiZ889xm+2ECQHievRl4yTJ0+6wK+7u9tu3brlwkEFdKpWVCXn7du37e7du/4rzA4ePOiCv46ODuvp6XHz9A9S1Z+ar3V0dna6+aJAVEHj4OCgXb16dSkUDSpGh4eH7dKlS0tBYCrLKyBVqHj+/HkXKOp5BY4KXy9fvry0fzoeeo0oCFVgmry/yduvbdf8ZApF9V6i6k7tu8JVhZp6D713QOvWe2gbgu1PXr8C2QsXLmw6nAawvYI/wAAAAAAAkAoi6x1CwWBXV9dSyKhm4go8dasgMqh4UtAXBHp9fX1unuh1QUWlmoUnUzWlXqfAMli/6PV6TwWICgYDqSw/OjrqKi/VlFzzSktLXbCoKlDNV4AbNJEXBRhq4q51KMwN1q9b7a+qV/X8WkGHXnflyhW3PgWvel1y6KnjpNdrntaXvP47d+4sWxYAAAAAAAD5i+BzB1MIqD4vgwBRFPapKbialosqQlWJqUlN0VejCkkFqKqCVPNyBZuiMFCVlTdv3lxW/ZjK8smBppbTpNcrgFQYqvkKRINm7wpGtT96vDKEVPibHKSuRlWo64WXej9NOm46fivRvB0AAAAAAGB3IPjcwRQuKuRTiJhcAanHavZ97tw5O3bsmBv0R/2EKvxMrtwMKGS8ePGiCwK13KOPPmove9nLXD+YamK/UirLK2DUNmq+qjwl6GNUIacCTIWNqtQUBbjaxrW6AtB8PZ+8v6kI1q/gNqj2BAAAAAAAwO5D8JkDgibdAY2Erubc6iPzqaeectPTTz/t+tBcq99KhZnPPfecW07N5FWVqYGITp8+7QYLWmmzyytgVECq0FPP675eq6BTjxV+KswMqjSDiks1pV+N5q/cXwAAAAAAACBVBJ87WNDkW+FiUCGpeerDU03M1UfmZgbo0WtUQalQUQGk+up88cUXXbCpxxo4SMsEUlleIaW2RdupQY404rtCSzVZD+YpDNU+iCpEdV+B6MrwU481X/uk16QjqEDVeyfvEwAAAAAAAHYXgs8dQs3Xg740A+q/UwGewkSFecmCJt3J1Men1rOSRjM/c+aMq8BMpnVq0nqSQ8hUl9f2aTs1KfCU5L469XxAlaAKShWIrhyESY+D8DToOzRV2r5ge3T8kqkqNegrFQAAAAAAAPkt1tzS9qR/H1m0mUpMUYjY0NDgQk8FlwoUVUXZ0tLiBhZS9aQGEwoqPvVY/WlWVlYuDWak+2r+rkpMUdVjMPiRKAzUyPBqHh/0f6mQUX2D6lZ9ciaPEJ/q8lpGy2q7gypU3Q8qQ9UkX9skmq9qTi2v57W/Wl79kypw1fMdHR0PVHyqElTbpEBVo82vJ1i/gk9VrmrSe2mwJgXD2j+NgK/3ArDzrfYHHQAAAAAANkLwGZJUg08FgAoUm5ubrampyVU+KqC7du2a618zmR4rKFXgqXBPAaje78aNGy6YVEgQDDAkCgIVFmp5BYJav24VSnZ2drqR2pNDwFSXFz2vcLanp8c9p/fW61VhubJJvtavkelVUapAUuvXfYWj6qc0uUI0kErwGVR9ap2adIwUFiuA1XHTthF8ArmD4BMAAAAAkI7I2XOPkf6EIKjQ3Igu6E+ePOlCxfPnz7vX6b5COQV461FoqmUVKgZ9aG4keI3Cv43WL6kunyrtv8JRbf9mw+JUaNsVKmvbCTqB3KSqbQAAAAAAUkUfnzuMwjmFn5sJGRVGqnpys6GnBK/ZbIiZ6vKpUtip9YcReoq2W8eT0BMAAAAAAGB3IfgEAAAAAAAAkHcIPgEAAABgl5lXV1Zzah212EIq/WnWrUfrAwBgp6GPz5DoSwAAIHP08QkAQHbNz83bfCL7XU3FojGLxRmUEACwc1DxCQAAAAC7hCozwwg9Reul8hMAsJMQfIYkEvHvAADSxrkUAIDsSoQUegbCXj8AAKkg+AxJJMKhBYBMcS4FACC7FkIuyAx7/QAApIIrypBEKVMCgIxxLgUAINvCHuKBISTW0tqyx/7Hf/tZ+9//6xfs9Onj/lwAQJgIPkMSjcVoogkAGdA5VOdSAACwszTVzFlJIQEnAGDnI/gMkUY1BACkh3MoAAA7z3d947D9zk932S/84D2rraA/TwDAzkbwGSJVKkWjHGIASJXOnVR7AgCwsyj0/PbXjVjMu8Q53j5j3/vEsP8MAAA7U+TsucdooxCyubk5SyTo5RsANkOhZzwe9x8BAIBsmpmZ8e+lJjn0lN6hmP3nD9TbpVuFizOSFBY+OG89r3/dq+wVrzhnF1+8ap///BftTW96vT380AkrLCi07u579oE//HO7cfO2v/SiV77ipfYNr32lNTY22MTkhF24eMU+9rFPW2/fgL+E2bu//zusrrbGnn3+or3y5eessrLcvvyVZ62j47Y98YbXuMfPv/Ci/cEf/plNTS0/LmGsX318/sSP/6CVlhbbBz74YTv76Ck7fOiAzXvXii9eumYf+tDHl60/2Wa2J5DO8dyMsI8nAIQh1tzS9qR/HyHRRby6+1ygo28AWJP69IzHYhYj9AQAIDTz8w82T29vmrWvf3jSbt8rsLn5BwcqSCX0lFiKrTZe9tJH7dxLHrFoJGpPPP4aO3b0kJUUF1thYYEtLCzY33/xKRsdHXPL6trqR//l99obn3idVVVVWCIxbyUlxXbo4D57+OGTduXqDRseHnHLvvUtj9uBA+3e+g66ZUpKSuzA/r125pFTVlxc5Kb29lb3vgriJMz1V1aU28u/7iVWXl5mD50+bs3NTd5aFqy0tMTa97bamTOn7PKV++uXVLYnkMrxTEXYxxMAwkDwuUUi3glfXwDc1wg36hEhKAC4AYx0fvSmeLzAnSsBAEB4Vgafpw9M23/4vj77+ocnrK1h1r7yYsmy8HNl6NnVH7f/9Pv1duXO2lWdqQafp08dt8OH9lttbbUNDQ3bB//4I/Y77/+A/fWn/9YuvHjFbt/pcoGdfPs732KvfPlL7U5nt/2P9/6G/dGffNQ+/Zm/tb2tzXbw4D5rrK+zL/7D027Z177mFVZRUW4f/8Rn7b2/9FvW5i2j6emvPm9P/tx73ToVCs4n5u2LX/qKe02Y6w+Cz7KyUrt1p9P+63/7VfvTP/uYfclb3+EjB1xFaEN97dL6JZXtCaRyPFMR9vEEgDBwhbnF1GedmnAWFBS6JiBMTExMu3nSuVDnRPrzBABge3zjuXE3SJH+GPmK05P2b97ZvzRi+2qh53/+gzq71plaU/bNGhoasff/7h+50ExNpUdGxuzatZtL3YYpFHz0kdM2MzNrn/jEZ62zq8fN17If+ugnbWh4xNrb21z4FtBLxycm3f2BgaFlt1PTM+55VWBK2OsPTE1N2Uc++qmlZt66/cQnPufmt7U1u6pKSWd7km10PNMR9vEEgGwj+AQAAACAXeo3PlJjL9wocveTw89/9satDT3lRsdtu3Ktw3/0oOPHj1h1dYUNj4zYzPSMnT59fGlSJeLExKRrbq3KyXSEvf6AKiNXVt5evHjFBgaHXTNwVVFKptuz0fEM21YdTwBYD8EnAAAAAOxSkzMR+w/vb1gWfr7yoUl7x2u2NvTcDIVkkUjMmhob7Md+9PvtJ//1P182LQZoEYvF02tJEvb61zM2Pu4GxdX7aztkO7cnG3J9+wHkB4JPAAAAANjFVoafyXZK6Jnsbme3vfeXf2vV6Zd/5bftH7/8VX/J9IS9/lTttO1JVa5vP4DcRvAJAAAAALtcEH4+d63IgnFvdlro2dPTa7OzM24UdI1K/sILLz4wXbh42fVlmY6w178e9etZVVlhMzMzdvdut5u3nduTDbm+/QDyA8EnAAAAAMCFn//x/zTY89eLrHMHVnq+cP6SGyCnuqrS3vrmxy0aXX45++Y3v8G++U2v9x+lLuz1B4qKiuyRh0/6jxa94uXnXL+Xg4NDduvWXTdvq7YnLLm+/QDyA8EnAAAAAMBR+Pkzv9Vo7/7F5h0VeopGI/+rT37Oxscn7JGHT9h/+NmfsG952xvtrW953P4f7/7b3vwGe9UrX5r2YDlhrz+gAPC1r365vecn/4V957ve7m71WAMefeFLT7n+PmWrticsub79APIDwScAAAAAICc8/dXn7Td+6/etq/ueG/38Ld/8jfa2tzxubS0t9rXnLth7/+dvuj4l0xX2+mV4eMS++A9P25HDB+z1r3uVnTxx1GZnZ+0Tf/U5++QnP+8vtWgrtidMub79AHJf5Oy5x/weXAAAAAAA+WxmZtb7/zAvASNWWFjg3w9XZWW5tbW2WGIhYR0dt2xqasZ/JjvCXn9xcaHt39/uKj2vXbvpKiTXE/b2hC3Xtx9AbiL4BAAAAIBdYnZu1hYS4V0CRqIRK4hvTfAJAMBGCD63WGJ+3hILC7awkFgaLREAdqtIRFPUot6daCzmzwUAAGGZTyRsfm7Of5R9sXjcYisGsQEAYLvwG2mLKPCcnZ2xOQWf3pcNQk8AMHcu1DlR50adI3WuBAAA4VEoGYuG88dGrZfQEwCwk/BbaQvMzc25i3rCTgBYm86ROlfqnAkAAMITi8dcZaaapZtpykTErcdVenrrBQBgJ6Gpe8h0Ab9RJ9UAgOWi0ajFvQsoAAAAAADSRcVniFx/noSeAJAynTtp9g4AAAAAyATBZ4jmE1y0A0C6OIcCAAAAADJB8BkSVSrRpycApM8NfETVJwAAAAAgTQSfIUmQegJAxjiXAgAAAADSRfAZkoUF+vYEgExxLgUAAAAApIvgMyQUKQFA5jiXAgAAAADSRfAJAAAAAAAAIO8QfAIAAAAAAADIOwSfAAAAAAAAAPIOwScAAAAAAACAvEPwiVCUlJRYQ0ODNTY2Wnl5uUWjfNQAAAAAAACwdSJnzz3GmLkhmJmZ8e/lvqqqKpufn7exsTF/ztri8bgdPnzYqqur/TmL7t69a7dv3/YfIR8UFRXZqVOnbHZ21i5cuOA+I0AYCgsL/XsAAAAAAGwewWdI8iX4rKiosOPHj7tQ64UXXthwvw4dOuQqPfv6+uzOnTu2sLBgsVjM5ubm8ioMBsEntg7BJwAA4Ut43+US3nf3hYWEN/kzAWCXikQ0RS3q3YnGYv5c5CLaH2NdExMT1tvba/fu3XPh5XoUTqg6dHJy0m7evGlTU1M2PT3t1kHoCQAAAOw8CjxnZ2dsTsFngtATAETnQp0TdW7UOVLnSuQmgk+sS1V8HR0drnpT/+jXowpAVXcq8FQVIAAAAICdS4UNuqgn7ASAtekcqXPlRsVg2Jlo6h6SzVY41tbWWl1dnfX09NjIyIg/9z71lamm46q6HBoa8ucuKi0ttdbWVtccXe+nZTStFlBqmT179tjAwIANDg66dTY1Nbk+OfW+CjeDf8TaHm1XMoWZ6qdz5br1+r1797rbgoIC9z4KPUdHR/0l7r9Wzd5bWlrcwEddXV02Pj7uL3FfWVmZNTc3u6rRzs5O95pUaBAlHRPRMdW6dAy1HjW/7+7uXvX46HU6JpoU4Or9+/v71zyekUjEKisr3THU4E06djq2Wv9qJ8PNLB8cSx0vHR/RtuiYaTltk+jno8pahdHB50zr189Mg0npc6EqW1Xp6j1WO4apfB4kOD5aRu+lz6KOjbpBoKk7wkZTdwAAsk/f9TYqbAAALKdrY103I3fEmlvanvTvI4s2GwKpQrKtrc0FXArakukf1MGDB10YuDJQU0CmQYSKi4tdsKXQUYGYwjUFWSu/xGi+3kfL6lYhll6j99c8hVhBQBYEXArQgknLKThcGaLpH7yCOS2jcELLKRjTfe2TJlHApm3ScgomtZzmrbRv3z63H3qv1YLRjeiY6dhofxXsKWQMtkcBqALDYFsC2kb1Van9FjXP1zFXkLja8noPHfv29valQEbHIQipNQhUcvC92eW1nUEwrM+CjrXeX69T6BkcDz3W9gWhrI7lkSNH3HHVz1Sv0z7V19e75RRSrvy5pfJ50LYq4NRnIvj56rgqZNVzCj6TlweyTZ87AACQPWqyOb/iegEAsDFd90a824h3nY/cQPAZks0GnwqNFEIpSBoeHl7WRDyoftR8Ve8FFGgpIFSgdf78eVdNqQpBBWx6TrerVYcqyNOtQrRLly65qj5VVSrYSw5V9X6qJtSkQEtBpAK21cIt7ae2Te+vKk8tq4rB559/3s3TlByYKlRU4Kft0DYmv68CP4WWWkYjwCeHjZulfVeIp0BY2/Xiiy+6fVT1p9avIFHbnFyRqmOp+ToeV69edfupoFkhZU1NjdvG5OU1T2GhAmYdf61fk8JL7b9elxxib3Z57a8+C9pOHTM9DsJbHT8towBI83SMgs+EjplCSG1zsL/B9mv9Cir1M02WyudB76f1a74GuArWr2OszyjBJ8JG8AkAQHbNzd//rgcASM2C9x/XKLmDiHqbKSxSgKV/NAoEkymYUpCnUCmgx6q8UzB169atpYBV61EgpSbOWo+q91ajkOvKlStuOb1G4Vpy2Bo2bbcCPG2f9i+ZHmu+nk8O3tKhUFGhaxCean0KU3Wr9wlOUgoFFegp8FTYGNDrdNx1q2bhyVRNGYSJwfpFr9d76hjr5xRIZXkFrDoGChU1T8GkKj0Vhmq+Kix1q5+fBOGm1pHcFYFutb8KSINwdTUbfR50nPR6zUsOo3WrYHwrPzsAAADInKo9+Xs1AKRP51AGO8odBJ87gCokFUApYFKwJUFTaM1XU+iAAjBN6gdSQZVCtWBSSKUgKgjOVqOqw+0OqxQoKpBTZWYQyGl/g4BNQWQY9J46bkGAKDqGqjwNKjRVnanqRk0rg+iAfl4KUNXkXM3LdexFYaDCaI1on1zxm8ryyYFm8HPV6/Wz1c9U8xWIBs3eFYxqf/R45c9V4W9ykLqajT4Pej9NOm46fivp+AEAACB3JPj+BgAZ41yaOwg+dwCFYgreFE6pWbPoVo8VAiaHaAq9VD2oKsQzZ87Yo48+umxSk+2dToGcAjftn4JGUZNpPdZxUNgbBh1HhXwKEYPAVfRYfXCeO3fOjh075pq+B83Hkys3AwoZL1686IJALafj/rKXvcz1g6n9WCmV5RUwahs1XwG36DOgkFQhp46RwsbgGCnA1TbqmK5G8/V88v6mIli/PqNBtScAAABy18IC3+kAIFOcS3MHwecOEQSc6qNTwaZu9Xit6kc1m37mmWdWnZ599tmlisCdSlWfCtO0nwoeVf2pYC25uXlYgibdgf3797tqU/Vb+dRTT7np6aefdv1eJofOyXR8n3vuObecmsmrKlOh8+nTp11/nittdnkdEwWkCj31vO7rtQo69Vjhp8LMoEozqLjUZ2Y1mr9yfwEAALB7UaQEAJnjXJo7CD53CAVbCjODgY5U0anHK6sfFXopjFPzZd0qGFs5aZmdHnQpzFMTc1U2KvxUqKcm/WEGtkGTb4WLQYWk5ulYq4m5+shcK+hMpteoglKhogJIhbUaVEjBph5rf7RMIJXlFVJqW7Sd+hzomOhnqSbrwTz9jLUPogpR3VcgujL81GPNDz4n6QgqUPXeyfsEAAAAAACw0xF87iCqglTT4paWFhcyJQ9qFFCApWpBBVoa8X0l9Uu5Vt+UO02wf2r+rf3WIE9BBWOmVEUa9KUZULN6BXgKExXmJQuadCfTcdR6Vjpw4IDrZkBhbTKtU5PWkxxCprq8tk/bqSkYTT65r87kPl8VjCsoDcLyZHochKdB36Gp0vYF2xN0SxBQVaqOGwAAAAAAwE4Ua25pe9K/jyzaTOXgSgqZFI4F1Y+qQFwtCFSIpRBKwZyCLS2jYEqD56jZtO6riXzyaxWUajRzBWiqJF2Pmn1rPbrV++i1CgBVnal1BIMQBVWTAQWNql5UOBsMFrQevV7hnNav/dUo4ZkGnwoR1Wxe26Ljo0BR61SYrIGFVD2pwYSCbddj7ZcqbYPAWPfV/F37Iqp6TN4f7XtwHIL+L7Uf6htUtzr2yU32U11ey2hZbXdQhar7QWWomuRrm0Tzdby1vJ7X/mp59U+qwFXPd3R0PFDxmcrnIVi/PguqXNWk99LnTZ8L7Z9CbL0XEIbV/gABAADSk851CgDgQVyn5AaCz5Ck84VCwZFCLwVwnZ2dyyr7kik4U1im8ErLKoTSpLCvq6vLrl+//kBT91SCLgWHTU1N7jWq6lOYpu3Sfc3TpKrTlVWEqQafovUqUFtvf1Oh9Wn7tc06RqqK1b4oIFZAd+3aNbftyfRY267AMwiU9fO7ceOGCyZ1MtO6gmOq/Qu6JVAgqPXrVqGk9kMjtSeHgKkuL3pe4WxPT497Tu+t16vCcmWTfK1f3QYoMNfx1/p1X+Go+ild7bim8nnQcdM6glBex0hhsQJYHTdtG8EnwsQXCgAAsofgEwCyg+uU3BA5e+4x0ooQrKyGDIuCvqC5sQKqXAqftO0nTpxwFYTnz5/PyjHTiefkyZMuVAzWqfs6Ljo+69H2aFl9GQz60NxI8BqFfxutX1JdPlXaf30etP1hfKnVtitUzrXPGnKbzhEAACA7tuo6BQDyHdcpuYHgMyR8odhY0BxbTdxVxZgNK4NPVUMCyG18oQAAIHu4TslPJ04csW95yxN2+ep1+79/9jF/rtmpU8fsx3/0B6ysrNSfs1j1e/Vah73v/R+0u53d/tzwxWJR+6Y3foNNjE/aZz73BX9u7sj17Uf2cZ2SGxjcCFtK1YJqKq0BjdTHpb54JfdvCQAAAABIzZmHT9nJk0ftm9/0jfauf/ot/lyzWHT5QKqiYpFjRw/Zj/+rd1tDQ50/N3yve82r7Fu/5Zvs29/5FhfI5ppc335gt6KPz5DQd87qVIl55MgR17+kmmNfvXo17RHHV6Om5OrjU7/M1e8kPwcg9+nfMwAAyA6+H+enRx45aUePHHRB54ED7VZaUmLPv/CiJRYWXLipgpPBwWE3qceqkpJiKy8rtenpGbtw8bK/lnBpG5qbm6y7+579zd/+g3vvXJLr24/s4zolN9DUPSQ0IVmd/tqo8FPoJxLAZtCEBACA7OE6JT9957vebt/0xOv8R9611tycfepTf2N/+Ecf8ufc9+iZ0/YjP/x9Lvz86left/f+8m/6zwBIBdcpuYHgMyR8oQCA7OALBQAA2cN1Sn5aGXzKWuHnww+dsB/7ke+30tKStILP4uIie8PrX22PPXbWGupr3WfqytUb9uGPfNJu3rrjL7XoO779bXbyxBH/0aLBoWH7vT/4v9bXN+DPWU4Vqm998xvszCOnLBqNWcfN2/aXH/u0PfH4a9zzwWvrvff+nu/6Njfvg3/8EXvtq19h5849YmXefnV29din/vpv7Ev/8LR7Pl2pbP9WbA92Fq5TcgNN3UOSSNCEBAAypS6paEICAED20NQ9t33f977Tfurf/Av71re/yfU3GUxHDh/wl7hvZbP3QFNTgz32skddS7yurnsphXGVlRX20z/1L+3rX/Uy11Q+kViwoqIia9/baq94+TnX/Pva9Zv+0maPf+OrXd+jNTXVS1Oh975f/vIzNjI65i913/79e+2nfuKH7PTp41ZYWOBaCO7xtveVr3ipa2au9wpeW+utS4MNNTbWuypWTfF4zNuvuJt35pHTNjU5tWx7UpXK9m/F9mBn4TolNzC4UUgiEQ4tAGSKcykAAMB9dTU1DwxWtJ6CeNze8IZXLxvwKBMKAg8eaLebt+7ae37mP9kP/ov3eNNP2Wc++wUXSr7uNa+08vIyf2lz1aTf+T0/6qb/9t9/zSYmJv1nVvfmN32jC2av37hlP/nTP+fWr/e50XF7zZCpsqLcEomE/ex/+EV79w/9lJv+9u/+wQWO/+Trv857XfrfJ1PdfglzewCkjn9xIYmm8MsIALA6zqUAAACZUfj5Da97lX39qx7z56Svrq7GDSh748Yt6+3td/Pm5xP2lx//tD373HkbGByyqsoKNz9Vba3NdvjQfpucnLK//NhfL61ftx/9i0+5+avR/D/5079Yamav7VEVq+YrhG3e0+Tmb5Wdtj3AbkfwGZJoLOaaaAIA0qNzqM6lAAAAyMzo6JjdvtPpP0rfpcvXXHN2NT1XP6GPPHzSVTAqnHzvL/2m/eL/+N92t7PbXzo16tuzrKzUhodHH2gOri4a1hoYV/NXduEwMDC0qerMMOy07QF2O4LPEMWiXLADQLo4hwIAAGSuv3/Q3ve7H7SOjtv+nPR97vNftN/7gz+1sbFx10+o+vv83d/5Jfuvv/Dv7DWvfrm/VHqamuotXhC36ZnpNQc+AoBUEXyGSJVKagYAAEiNzp1UewIAACz39196yi5fuW7Xr99cNt271+cvsZxCz99+3weWDW6Uqc//zZfsx/71v7ef/4Vfto//1Wetq6vHWlr22Lu//1324z/2bn+p1E1OTttCIuH6MKUfTADZwtkkZPF4nPATAFKgc6bOnQAAAFjuH/7xq/Yff/5/2s8++d+XTV/56nP+EvetFXqWlpZ437dS75dNYeSxo4fs5ImjVlxc5Jq9f+AP/9z+7b/7z/ar//v9rin38eOH7fixw/4rUtPT02tT0zNucKD9+/b6cwEgMyRyW0AX8HH6/ASAdekcqXMloScAAEBmgtCzu6fX9cX580++Z2n6zu94uxUXF7uRx2/dvuu/YnO+57u+zf7te37Ennj8tf6cRd3dCi2nLRaNWiyeXqudK1evu/CzsrLCjX6e7Nixw27UeABIVay5pe1J/z5CFNEvAIWf7oH+f/WOmQFgN3EDGOn86Ko8C9y5EgAAhGfloCvIDw8/dMKOHD7g7idXemqU9Ld88xussbHeamqq3VRSUuyW6+zqsT/8ow9tetAdDdqjwPTkiSOuqnNfe5sbMf6xl521b/2Wb3KDE93ouG0f+vDHlwYi+o5vf5t9+zvebK97zSvtkUdOWnV1lRUUFLjXv/bVr3Dz9ViDGek1auZ++tRxO3Rwn504fsQOerePv+E1bjCleDzmtvWLX/qKjYyOuYBU8/X6Lz/1jPUkNfcPnpNg+XSksv1bsT3YWZTxYOeLnD33GAkcAAAAAOwCMzMz/j3kk7e95XF7+7d8kw0NjSxr3n7q1DH78R/9ATdaekDh99VrHfa+938wrRHYNYjRt37Lm6ympsoFlTI7N2fPPXfBfv8Df+ZGeA/85L/+ITt79iH/0erUT6iazAe+6YnX2dve+sTSNs/MzNqzz513gej4+IT99/f+ut2522Vtrc32np/8Ydd0/3/92vvtuecvuuUleE6C5dORyvZvxfZgZyksLPTvYScj+AQAAACAXYLgMz+p/01VXt68eSetMDMd9fW11tLcZNPTM3b12g2bn0/4z2RO+3P40AFXUXf9xk0788gp+8EfeJf19w/Zz/3CL7lR5YHtRvCZG2hTCAAAAABADlPoqCbUWxV6Sl/fgKtq1CBH2Qo9jx45aN/3Pe+0srIyt94LFy/b1NS0veTsw66PT/UBSugJIBVUfAIAAADALkHFJ3ayH/nh77OXf91LXJP9rz173mZnZ23//r126OB+m5iYsN/87T+wZ772gr80sL2o+MwNBJ8AAAAAsEsQfGInUxP3b3/HW+2ffP1jVlFR7uZp0CNVsv7xn3zUvvrM824esBMQfOYGgk8AAAAA2CUIPpEr1IdoU1OD3b7daSMjo/5cYOcg+MwNBJ8AAAAAsEsQfAJAdhB85gYGNwIAAACAXSIS8e8AANLGuTR3EHwCAAAAwC4RiXAJCACZ4lyaO/hJAQAAAMAuEaVMCQAyxrk0d9DH51ZbWND/bCGi//PnAcBu5X1fiCxEFpuK8OUBAIAtMTs7465JAACp02VLQQH9e+YKKj63ivfNIrGQ8KYF03+EngDgcadDnR8Xz5FchQEAEL5YNObfAwCkinNobiH43AIL7oKesBMA1uWdI90fhwg/AQAIVTQWs2iUS0EASJXOnTqHInfw2y5kuoDnIh4ANo/zJgAA4YvH44SfAJACnTN17kRu4TddmLh4B4C0uHMn508AAEKlC/h4LEY32wCwDp0jda4k9MxNBJ8hStC2HQDSxjkUAIDwqcmmBunQRb2qmQhBAWAx7HQVnv45kubtuYtR3cOy4PfrCQBIW1TfOLgCAwAAAACkgYrPkJB5AkDmOJcCAAAAANJF8BmShQhX6wCQKc6lAAAAAIB0EXyGhWt1AMgc51IAAAAAQJoIPgEAAAAAAADkHYJPAAAAAAAAAHmH4BPYhIKCuLW27LED+9tt/742q62ttggjTQMAAAAAAOxYkbPnHqMHtRAkEgn/HnJd+94Wa2pqsGg06e8E3r+aiclJu37jlo2PT/gzAYRh2b89AAAAAAA2iatJYB1trc22Z0/jg8FLxKy0tMQOH9pvRUWF/kwAAAAAAADsFASfwBrKykqtoaFu3SbtxUVF1tLc5D/aeSorym1vW4uVlBT7cwAAAAAAAHYHgk9gDeVlZRaPx/xHa4gsBqQ7VXt7q7W0NLnKVQAAAAAAgN2E4BNYQywWtYiSzQ2oGXw89mBAqibyJ08ctX3tbds2ENLg4LCNjY3byMioPwcAAAAAAGB3IPgE1jA/n7AFjWK0AQ1kNTc/7z+6r6G+1ioqyqympspKiov8uVvrbme3nb9w2Xru9flzAAAAAAAAdgdGdQ8Jo7rnPjVhP3rkoBUWFvhzVuH967nX22c3Om77M+576PRxNwDS9PSMXb58zSYmp/xnUldRXuYqSMu9W1WYap39AwPW3d1rCwv3/wmXe9u8d2+LxaLLK1D7+r1le3r9Rw9SSNvY2GDFxUU2Oztr/f2DNj8/b/V1tcteu6epYWne1NS0NXvbVFpW4kLi4eERu3O3y3v9nFs2HbW11d57NNrY2Jjdut3pz12k0fUrKyrW3J5YLGZ1dTVWUFDgjs+9e73ez6bfLYfcxqjuAAAAAIB0xJpb2p707yOLksMo5CYFgLFo1MrLy9dsqj45NWUdN2+7kFCaGutdiFhdXWllpSUWc32ELlgsFrfqqgoXhI6NT7hlN0uB56ED+9xr1fJeW1JYVGDVlZVWWVluQ8MjS0G7llEYWFRc5ALbYNJ2Dg+v3tx93742a2trtqLCxdHp1cS/ytvWiopyt57k19bW1bhwUn2f6n0K/RHt4/G4C2X1GjWvTzf41/vW19e549k/MOjPXdTkvV+l9/xq26NjrWOugCzq/ay0L3pcUBB3xwe5bbu6igAAAAAA5DaCz5AQfOaH0dExF6SpkjISTQpfvB/vxOSkXb9xyyb9Ss6S4mLbv3+vVVVVuhBwMfRcrFZT9ajmaT0TE5M2NT3tnttIUVGh7d/X5q0r7pqtX7p8zTq7emx4ZNSFhHpPhYSjY+Nuea1Xz9+92+2mstJSN6K7+vlcLfisqqxwAx8pWFK1ZrD+xELCjQivbU9+rfZN1acKOlV1+eIlb/nOHu/9x1wQW1RUZHNzs95rUgt3AzpGVd56pr39WBl8qppz5b4E26N/bjdv3bGrVzusq/ue25/ycm/fveOj460KUOQugk8AAAAAQDpoPwhsQIHg1547b3fudNm9e/3W09NrV67dsBfOX7LxpOpNhYUbBd56NpVQvLCgwDXhnp+bMzUlDyj803Yo1MskFFJVpEJMBbwKPANdXffcvLVosKTbdzqX9mVkZMxVskajESv0K0e3kra112/Wrm3Sz0zHSPumfQQAAAAAALsPwSewBjX5rqyssOqqxSbUqri80XHLOm7esYGBocXm1d5zpSXFbnlVFb546apdunTNTUEl6MzMrF271uHmXbx42VVrbpbCxKmpKddv5aGD+6yluclVgYoqG1+4cMltV7rUp6cGcFqtQnO9fHa15zZbxboVFH4GobSqUAEAAAAAwO5D8AmsoH4hjx45YGcffdhOHD9sx44dskcePmmPnjltp08es4dPH7dzL3nETp065p576PQJ91x9fa0LP9WnpKagGlK3qszUvFQHONJrr12/aYNDw1ZYVOQGLjrz8Cl7ydmH7PCh/UshaLpUnanNnJtPf0CinWpmdtYS3s5leowAAAAAAEBuIvgEkij0PHbkkNXUVLtm2wE1J9cgQWXqN7K0xFWDLvEW03MH9u91o5wHguAzUwpTL1+5bl979gW7ceOWDQ0Pe3Mjrs/LUyePWU111eKCadBo7BJxQybll2Cfgn0EAAAAAAC7C8EnkEQD/WggonSoObxGYA9ef+XqDde8/ap3m2qlZ0DVikFz+tnZObvX22+XLl+3rz7zvA0NDbugVgFoumZmZlzAW1y82Fx/p1DfnJnSPmnftI8AAAAAoOuMpqZG279/vzU0NrguxbB7aNBgTdhdCD4Bn0JG9emZSfGjgsigAjNo9q5+OtNVU1NlR44ctMOHD7h1B1RNOuWPVJ7J4EYalCiRSFh1VcWywFfHQiOob7XZmTlv3xJuX5ObqGvbSktL/EcPUsVt8vHR8ton7Zv2EQAAAMDuppZ7J0+etPr6Bot611AVFZVW4F1HYPfY197upmSlpaV29OgRe+ihh+zE8RNWWcXguPkm1tzS9qR/H1mUrWbO2DoV5WXWUF/rKjfTpRByfn7e+gcG/TmZUXhaVVnhQj8FqvqLpPrlbG3d4yo9FxIL1nOv18YnJt3y5WWldujQPtvT2GCNDfUuvNSo8IXxuNXX1bp51d56xsbH3XZOTE5aVdXi+jW/pLjYvU9bW7Mb+Eg0Ovrw8OKATFXeLwEdp6mp6Qf2MXgueflUqapVo7CXlpR4X0TK3XZpP7W/2ncd39W2R6Pf637c21fth/pCLSwqdAMcaYR3BaDIXZmE+wAAAIC07GmxWEHMLl++7F3LDNjg4KB3/THrP7vz6Lr04KFDVlRY4K6BkLmamsXWkvrZS7l3zXno0GGbmp6yvt4+i8bUirPZ+1zM2KR3rYz8QMUnsIMpCLxy7cbS4EYKABVs1tZU29zcvN28dcc1fw+o6UZZaanri1RT8BfMouKipXkKE2N+uBsMnqSqSIWHjY111thQ54LC0dGt/+U6NzfnRs2fnJpy+9HU1OAC28nJabt37/5+rqQgV6Hn3rYWa2lpcvui7b9+45ZbJwAAAIDdLV4Qt+mp6Zy5PtAf/wvUNDtK0+ywVJRX2uTEuN3suGn9/f128+ZNm/CuLaurq/0lkA8iZ889RmliCKgwyz3qS1MjpcfiMX9OegYHh91gRNmmX3zl5WUutFQwqGrQbHLN24uLXZ+Y6pP0xLHDVlFZbnfvdtvdzm5/qa2jfk1V3brevra3t7oBpYJjvpnXIPdkUoUNAACA3Uut344cOeKaM680NDRk16/fv25rbt5jTU1N3nfPmHc9P289PT3W1bX8OujgwYO6MLORoWFrbWt16x8fH7crV664DEBjDLQ0t7r+Q3X9pqpBTfo+u9n30vXMsWPHXIu3lXq6e7xrs7v+o41pe7VdJSUlblLhS19fn3eNd8ebvxgFaRvavH2pq6tz26zt6evrt07vfYJlpLGxybv2anJ9ZGo9On63bt1yLQkD6y3TvrfdYgVxu+EdhyJvHw8ePGQ3Om7YlHftlvychPWzMG93pmeml/0skmm5w4cO25z3nsG2IPfR1D0kNHXPPQvef7W11RkNrKOf+8DgsI2MpNfUeyMKJaemp5f9csmUBnRSRaiqPrXu2bk519epqi31i0FN6dW0fatpOzba15VN7zfzGuQefQEBAAAAUuXCt+Fh6+3tXSzy8K4VFIzdu3fPBoeGbMEvWNqzp8kaG/fYrZs37ebNDpuanLLmllblasuamaupdFVVlRUVFVnn3bvetdI9Gx0bs2lvvaKwrtGbbt++bR0dHTbvXZ80NjW667igefVG76VrmSFv2f7+ASsvL3fh4Y0bN9w2j46OppQ1aHt1bdd5t9M6vPebn0+499e4CsF+tTS3WE11tV29ds2FlKqKVXNvLaMgUaqrql04qv264e3X6MiINTU2ugFldXw3s4yusysqKtxxKPP2q6GhwSYmJlzw2djQaCPDI+5xtn4W6st1z549y34WtXU1y34WKyn8rauvt+6uLtf8HfmBMhrApwpBjcCuJtU6oY6PTaQ0DXsn6ps379rdu13+Gnc+9e/Z2FhvB/bvdRWe+/e12aGD+1zlq5pVjHi/WIeGRvylAQAAACC3zM3OurBrPpFwk+67x3OLTd4VyNXW1tmg+v0cGnJVjrrVY81fWRgzMztj165es4HBQRcMjnnXTKKqzsrKKhfyqdm0qg61zOjo/cFWN/teM9pm730Ucibmk7Y5jQIPvb+2Q9tz716Pez9tZ9Cqqtubd+HFF5dCTm3/5MSElZWVu8dSVFzsqiB1naxtUldj125cd+sKihQ2WkZBovrQjMfiVl5aZpNTk1buvYcqNTVNeY+z+bNQMLrez2Klqupqa21ts76+e97rhvy5yAcEn0ASDRJ0o+OWnb9w2V64cCml6cVL11x1ZCp/gdtuGiRIYa8GAVKzdtenZn2ta05/r7fP9f8JAAAAAPlK4yKoWfn4+PJQTI8VtK0M2+bn5m0+8WAAqUBPTbjH1wnXUn2vMGj7tJ3aXlEAXFVRYUePHXMjm58+fdrKysvcc4GBgX6bm52zEyeP26GDB622psa1uhseHl66/t1oGQW3ui0uKXbjTowMjbgBdVWxaZHFQqSs/Sy85bTe9X4WybQd+/butf7+Xrt7t9Ofi3xB8AnsciPeLwMFvU995Vm7cPGKnT9/yZ56+lm70XHbNYXYyW7dumv/+OVnQulTFQAAAMAusbDwQAGLHq+YtT4VPkbUR+YG11DZeK9MqUpzsVDTmptbrKWtzfp7++zSpUtuGh9bHhhq9HvNv3btuhuAt7W11R5+6CGrq63zl9h4GT2vqbS0zKKxmA2PDFskGrWKinJXyTo37w86lcXjs+HPwhePF6iXN9eKE/mH4BOAo18mKv0fG5/w5wAAAABAflOV4tx8wlUiJtNjBWebbV6u0eJV1VhWtrxaMlm23isTZRXlbju1vWpirnEThgYHrH+gf6lJfcLFgPeVV1S4aWxszG7dvmXPv/CCDQwMuIGDtI7NLjM5PmnV1VVubIbJyQnvdtb1+6l+RbX/W/mzSKZtfv75590t8g/BZ1j8v54AADLAuRQAAAAhUhWiC+gaGl1wJ7rVY83X85uhYG54eMiqa2rcYEFSWVnpKhoDqbxXEAQqGCwoWGziHfObp6eirLR0KQDUdlVWVLrt1PpV/KIwsbyswgoLClzfmE1Ne9wyyaq8xwf2719ajyo2497yem1QnbmZZcYnJ9zo8tOTU977L9jo8KiVl1dY0L/oVv4skhUUFi6OIu8HtMgvjOoeljTKsAEAy0X0n99hOgAAAJAuDXYjq43oPTExZvFYge3du9daWlqstrbW+vv6rbu7c1kTa61D1YsK4YIwL5lGJS8sLHTNvJubm11fmRqcSBWIwftu9r1Egxw1NNTbHm9dWl9pSYkNDq0+IvlqtL3qM1P9bba1tbnH2vauri73XtoHDTJUW1fntkXhn756z83NuxBU26xlNCZEUVHh0jZrOY2If/PWLdPgUbKZZfStXkHkvd5eN/q6GxCqqsr6+nqXQs0wfxbTUzOWWEg88BlQH6d729ttYnx8aVR45I/I2XOPPfgJQea8f3iJVf7xAQA2L+r6HyL4BAAAQPii0Ygb9Ef9TaoiMV0K9NR/ZWJ+3g4fOuxGO79xffm4BKm8lyonFSKm2hT+4MGD7va6996xeNytQ9WQq9HzyjE2eg9Vhs55y6y1HtnMMhvJ9s8iGMUfuw9N3cOS1FkwACANOocSegIAAGCLKGBTlWW6QZuqEw8eOujCNgVtqm4sKS21kaFhf4n7UnkvVUymGnqupO1ZL4jU85t5j8VtXj/Q3MwyG8n0ZxHQdhB67m4EnyGKknwCQNo4hwIAACCXjI6OuG6aHnroITt79qy172u33t4eN3AQgO1BU/eQqa+J1fqbAACsTV8Y6dsTAAAAuSoej7u+PQFsLyo+Q8bFOwCkhvMmAAAAch2hJ7AzEHxuAV3ALw7Q4c8AADzIO0fqXEnoCQAAAADIBoLPreLCz+jiRb2u7rmuBwB3LtQ5UedGnSN1rgQAAAAAIBvo4xMAAAAAAABA3qHiEwAAAAAAAEDeIfgEAAAAAAAAkHcIPgEAAAAAAADkHYJPAAAAAAAAAHmH4BMAAAAAAABA3iH4BAAAAAAAAJB3CD4BAAAAAAAA5B2CTwAAAAAAAAB5h+ATAAAAAAAAQN4h+AQAAAAAAACQdwg+AQAAAAAAAOQdgk8AAAAAAAAAeYfgEwAAAAAAAEDeIfgEAAAAAAAAkHcIPgEAAAAAAADkHYJPAAAAAAAAAHmH4BMAAAAAAABA3iH4BAAAAAAAAJB3CD4BAAAAAAAA5B2CTwAAAAAAAAB5h+ATAAAAAAAAQN4h+AQAAAAAAACQdwg+AQAAAAAAAOQdgk8AAAAAAAAAeYfgEwAAAAAAAEDeIfgEAAAAAAAAkHcIPgEAAAAAAADkHYJPAAAAAAAAAHmH4BMAAAAAAABA3iH4BAAAAAAAAJB3CD4BAAAAAAAA5B2CTwAAAAAAAAB5h+ATAAAAAAAAQN4h+AQAAAAAAACQdwg+AQAAAAAAAOQdgk8AAAAAAAAAeYfgEwAAAAAAAEDeIfgEAAAAAAAAkHcIPgEAAAAAAADkHYJPAAAAAAAAAHmH4BMAAAAAAABA3iH4BAAAAAAAAJB3CD4BAAAAAAAA5B2CTwAAAAAAAAB5h+ATAAAAAAAAQN4h+AQAAAAAAACQdwg+AQAAAAAAAOQdgk8AAAAAAAAAeYfgEwAAAAAAAEDeIfgEAAAAAAAAkHcIPgEAAAAAAADkHYJPAAAAAAAAAHmH4BMAAAAAAABA3iH4BAAAAAAAAJB3CD4BAAAAAAAA5B2CTwAAAAAAAAB5h+ATAAAAAAAAQN4h+AQAAAAAAACQZ8z+f7E9uFSC0desAAAAAElFTkSuQmCC;" vertex="1" parent="1">
          <mxGeometry x="20" y="240" width="478.28" height="170" as="geometry" />
        </mxCell>
        <mxCell id="SOYD2aJHP4hrcM5KsKeR-6" value="" style="rounded=0;whiteSpace=wrap;html=1;" vertex="1" parent="1">
          <mxGeometry x="580" y="60" width="380" height="410" as="geometry" />
        </mxCell>
        <mxCell id="SOYD2aJHP4hrcM5KsKeR-7" value="Text" style="text;html=1;align=center;verticalAlign=middle;whiteSpace=wrap;rounded=0;" vertex="1" parent="1">
          <mxGeometry x="730" y="110" width="60" height="30" as="geometry" />
        </mxCell>
        <mxCell id="SOYD2aJHP4hrcM5KsKeR-8" value="&lt;h1 style=&quot;margin-top: 0px;&quot;&gt;Heading&lt;/h1&gt;&lt;p&gt;Lorem ipsum dolor sit amet, consectetur adipisicing elit, sed do eiusmod tempor incididunt ut labore et dolore magna aliqua.&lt;/p&gt;" style="text;html=1;whiteSpace=wrap;overflow=hidden;rounded=0;" vertex="1" parent="1">
          <mxGeometry x="690" y="220" width="180" height="120" as="geometry" />
        </mxCell>
        <mxCell id="SOYD2aJHP4hrcM5KsKeR-9" value="" style="rounded=0;whiteSpace=wrap;html=1;" vertex="1" parent="1">
          <mxGeometry x="1121" y="50" width="449" height="420" as="geometry" />
        </mxCell>
      </root>
    </mxGraphModel>
  </diagram>
</mxfile>
